<?xml version="1.0" encoding="UTF-8" standalone="no"?>
<svg
   xmlns:dc="http://purl.org/dc/elements/1.1/"
   xmlns:cc="http://creativecommons.org/ns#"
   xmlns:rdf="http://www.w3.org/1999/02/22-rdf-syntax-ns#"
   xmlns:svg="http://www.w3.org/2000/svg"
   xmlns="http://www.w3.org/2000/svg"
   xmlns:sodipodi="http://sodipodi.sourceforge.net/DTD/sodipodi-0.dtd"
   xmlns:inkscape="http://www.inkscape.org/namespaces/inkscape"
   sodipodi:docname="Diagramm.svg"
   inkscape:version="1.0rc1 (09960d6f05, 2020-04-09)"
   width="132.22191mm"
   height="94.584564mm"
   viewBox="0 0 132.22191 94.584564"
   version="1.1"
   id="svg8">
  <defs
     id="defs2" />
  <sodipodi:namedview
     fit-margin-bottom="1"
     fit-margin-right="1"
     lock-margins="true"
     fit-margin-top="1"
     fit-margin-left="1"
     inkscape:window-maximized="1"
     inkscape:window-y="-8"
     inkscape:window-x="-8"
     inkscape:window-height="1017"
     inkscape:window-width="1920"
     showgrid="false"
     inkscape:document-rotation="0"
     inkscape:current-layer="layer1"
     inkscape:document-units="mm"
     inkscape:cy="169.88661"
     inkscape:cx="203.88298"
     inkscape:zoom="1.4"
     inkscape:pageshadow="2"
     inkscape:pageopacity="0.0"
     borderopacity="1.0"
     bordercolor="#666666"
     pagecolor="#ffffff"
     id="base" />
  <metadata
     id="metadata5">
    <rdf:RDF>
      <cc:Work
         rdf:about="">
        <dc:format>image/svg+xml</dc:format>
        <dc:type
           rdf:resource="http://purl.org/dc/dcmitype/StillImage" />
        <dc:title></dc:title>
      </cc:Work>
    </rdf:RDF>
  </metadata>
  <g
     transform="translate(-52.594851,-22.315092)"
     id="layer1"
     inkscape:groupmode="layer"
     inkscape:label="Ebene 1">
    <g
       transform="translate(-8.8824405,14.552083)"
       id="g1397">
      <g
         id="g1343">
        <line
           x1="72.571426"
           y1="93.889282"
           x2="72.571426"
           y2="96.005951"
           style="fill:none;stroke:#000000;stroke-width:0.352778;stroke-linecap:square;stroke-linejoin:round"
           id="line1325" />
        <line
           x1="87.336121"
           y1="93.889282"
           x2="87.336121"
           y2="96.005951"
           style="fill:none;stroke:#000000;stroke-width:0.352778;stroke-linecap:square;stroke-linejoin:round"
           id="line1327" />
        <line
           x1="102.10081"
           y1="93.889282"
           x2="102.10081"
           y2="96.005951"
           style="fill:none;stroke:#000000;stroke-width:0.352778;stroke-linecap:square;stroke-linejoin:round"
           id="line1329" />
        <line
           x1="116.86551"
           y1="93.889282"
           x2="116.86551"
           y2="96.005951"
           style="fill:none;stroke:#000000;stroke-width:0.352778;stroke-linecap:square;stroke-linejoin:round"
           id="line1331" />
        <line
           x1="131.6302"
           y1="93.889282"
           x2="131.6302"
           y2="96.005951"
           style="fill:none;stroke:#000000;stroke-width:0.352778;stroke-linecap:square;stroke-linejoin:round"
           id="line1333" />
        <line
           x1="146.3949"
           y1="93.889282"
           x2="146.3949"
           y2="96.005951"
           style="fill:none;stroke:#000000;stroke-width:0.352778;stroke-linecap:square;stroke-linejoin:round"
           id="line1335" />
        <line
           x1="161.15959"
           y1="93.889282"
           x2="161.15959"
           y2="96.005951"
           style="fill:none;stroke:#000000;stroke-width:0.352778;stroke-linecap:square;stroke-linejoin:round"
           id="line1337" />
        <line
           x1="175.92429"
           y1="93.889282"
           x2="175.92429"
           y2="96.005951"
           style="fill:none;stroke:#000000;stroke-width:0.352778;stroke-linecap:square;stroke-linejoin:round"
           id="line1339" />
        <line
           x1="190.68898"
           y1="93.889282"
           x2="190.68898"
           y2="96.005951"
           style="fill:none;stroke:#000000;stroke-width:0.352778;stroke-linecap:square;stroke-linejoin:round"
           id="line1341" />
      </g>
      <g
         id="g1363">
        <text
           x="72.571426"
           y="101.29762"
           style="font-style:normal;font-weight:normal;font-size:3.52778px;text-align:center;text-anchor:middle;fill:#000000;fill-opacity:1;stroke:none"
           id="text1345">0</text>
        <text
           x="87.336121"
           y="101.29762"
           style="font-style:normal;font-weight:normal;font-size:3.52778px;text-align:center;text-anchor:middle;fill:#000000;fill-opacity:1;stroke:none"
           id="text1347">5</text>
        <text
           x="102.10081"
           y="101.29762"
           style="font-style:normal;font-weight:normal;font-size:3.52778px;text-align:center;text-anchor:middle;fill:#000000;fill-opacity:1;stroke:none"
           id="text1349">10</text>
        <text
           x="116.86551"
           y="101.29762"
           style="font-style:normal;font-weight:normal;font-size:3.52778px;text-align:center;text-anchor:middle;fill:#000000;fill-opacity:1;stroke:none"
           id="text1351">15</text>
        <text
           x="131.6302"
           y="101.29762"
           style="font-style:normal;font-weight:normal;font-size:3.52778px;text-align:center;text-anchor:middle;fill:#000000;fill-opacity:1;stroke:none"
           id="text1353">20</text>
        <text
           x="146.3949"
           y="101.29762"
           style="font-style:normal;font-weight:normal;font-size:3.52778px;text-align:center;text-anchor:middle;fill:#000000;fill-opacity:1;stroke:none"
           id="text1355">25</text>
        <text
           x="161.15959"
           y="101.29762"
           style="font-style:normal;font-weight:normal;font-size:3.52778px;text-align:center;text-anchor:middle;fill:#000000;fill-opacity:1;stroke:none"
           id="text1357">30</text>
        <text
           x="175.92429"
           y="101.29762"
           style="font-style:normal;font-weight:normal;font-size:3.52778px;text-align:center;text-anchor:middle;fill:#000000;fill-opacity:1;stroke:none"
           id="text1359">35</text>
        <text
           x="190.68898"
           y="101.29762"
           style="font-style:normal;font-weight:normal;font-size:3.52778px;text-align:center;text-anchor:middle;fill:#000000;fill-opacity:1;stroke:none"
           id="text1361">40</text>
      </g>
      <g
         id="g1377">
        <line
           x1="72.571426"
           y1="96.005951"
           x2="74.688095"
           y2="96.005951"
           style="fill:none;stroke:#000000;stroke-width:0.352778;stroke-linecap:square;stroke-linejoin:round"
           id="line1365" />
        <line
           x1="72.571426"
           y1="78.845833"
           x2="74.688095"
           y2="78.845833"
           style="fill:none;stroke:#000000;stroke-width:0.352778;stroke-linecap:square;stroke-linejoin:round"
           id="line1367" />
        <line
           x1="72.571426"
           y1="61.685711"
           x2="74.688095"
           y2="61.685711"
           style="fill:none;stroke:#000000;stroke-width:0.352778;stroke-linecap:square;stroke-linejoin:round"
           id="line1369" />
        <line
           x1="72.571426"
           y1="44.525593"
           x2="74.688095"
           y2="44.525593"
           style="fill:none;stroke:#000000;stroke-width:0.352778;stroke-linecap:square;stroke-linejoin:round"
           id="line1371" />
        <line
           x1="72.571426"
           y1="27.365477"
           x2="74.688095"
           y2="27.365477"
           style="fill:none;stroke:#000000;stroke-width:0.352778;stroke-linecap:square;stroke-linejoin:round"
           id="line1373" />
        <line
           x1="72.571426"
           y1="10.205358"
           x2="74.688095"
           y2="10.205358"
           style="fill:none;stroke:#000000;stroke-width:0.352778;stroke-linecap:square;stroke-linejoin:round"
           id="line1375" />
      </g>
      <g
         id="g1391">
        <text
           x="69.043648"
           y="97.181877"
           style="font-style:normal;font-weight:normal;font-size:3.52778px;text-align:end;text-anchor:end;fill:#000000;fill-opacity:1;stroke:none"
           id="text1379">0</text>
        <text
           x="69.043648"
           y="80.021759"
           style="font-style:normal;font-weight:normal;font-size:3.52778px;text-align:end;text-anchor:end;fill:#000000;fill-opacity:1;stroke:none"
           id="text1381">100</text>
        <text
           x="69.043648"
           y="62.861637"
           style="font-style:normal;font-weight:normal;font-size:3.52778px;text-align:end;text-anchor:end;fill:#000000;fill-opacity:1;stroke:none"
           id="text1383">200</text>
        <text
           x="69.043648"
           y="45.701519"
           style="font-style:normal;font-weight:normal;font-size:3.52778px;text-align:end;text-anchor:end;fill:#000000;fill-opacity:1;stroke:none"
           id="text1385">300</text>
        <text
           x="69.043648"
           y="28.541403"
           style="font-style:normal;font-weight:normal;font-size:3.52778px;text-align:end;text-anchor:end;fill:#000000;fill-opacity:1;stroke:none"
           id="text1387">400</text>
        <text
           x="69.043648"
           y="11.381284"
           style="font-style:normal;font-weight:normal;font-size:3.52778px;text-align:end;text-anchor:end;fill:#000000;fill-opacity:1;stroke:none"
           id="text1389">500</text>
      </g>
      <rect
         x="72.571426"
         y="10.205358"
         width="118.11755"
         height="85.800591"
         style="fill:none;stroke:#000000;stroke-width:0.352778;stroke-linecap:square;stroke-linejoin:round"
         id="rect1393" />
      <path
         inkscape:connector-curvature="0"
         d="m 81.430242,89.313503 0.295294,-0.171601 0.295294,0.171601 0.295294,1.029607 0.295294,0.686405 0.295294,0.343202 0.295293,1.029607 0.295294,0.343203 0.295294,1.54441 0.295294,-0.514803 0.295294,0.343202 0.295294,0.514804 0.295294,-0.171602 0.295294,0.514804 0.295294,-0.686405 0.295293,0.686405 0.295294,0.171601 0.295294,-0.686405 0.295294,0.171602 0.295294,-0.343203 0.295294,0.514804 0.295294,0.514803 0.295294,-0.686404 0.295293,0.686404 0.295294,-0.171601 0.295294,-0.171601 0.295294,-0.343202 h 0.295294 0.295294 l 0.295294,0.171601 0.295294,0.171601 0.295293,-1.201208 0.295294,0.686404 0.295294,-0.171601 0.295294,0.171601 0.295294,0.171602 0.295294,-0.514804 0.295294,-0.171601 0.295293,-0.171601 0.295294,0.171601 0.295294,-0.514804 0.295294,0.171601 0.295294,-0.686404 0.295294,-1.029607 0.295294,-0.343203 0.295294,-1.201208 0.295294,0.171601 0.295293,-1.54441 0.295294,-0.514804 0.295294,-1.544411 0.295294,-0.171601 0.295294,-0.171601 0.295294,-1.716012 0.295294,0.343203 0.295294,-1.201209 h 0.295293 l 0.295294,0.171601 0.295294,-2.402416 0.295294,-0.514804 0.295294,-2.230815 0.295294,-1.201208 0.295294,-4.804833 0.295293,-4.633232 0.295298,0.343202 0.29529,1.887613 0.29529,4.461631 0.2953,2.402416 0.29529,1.37281 0.2953,-0.858006 0.29529,-1.887613 0.29529,-4.804833 0.2953,-4.29003 0.29529,-5.662839 0.2953,-30.888213 0.29529,-15.787308 0.29529,13.04169 0.2953,27.799391 0.29529,16.816916 0.29529,3.775226 0.2953,-2.402417 0.29529,-0.686404 0.2953,1.029607 0.29529,-0.171601 0.29529,-1.201209 0.2953,-2.91722 0.29529,2.402417 0.2953,1.54441 0.29529,-2.230815 0.29529,-1.372809 0.2953,1.029607 0.29529,-0.858006 0.29529,-0.858006 0.2953,1.201208 0.29529,0.343202 0.2953,1.544411 0.29529,-2.91722 0.29529,-0.343202 0.2953,2.059214 0.29529,-2.574018 0.2953,0.686405 0.29529,-0.514804 0.29529,-0.858006 0.2953,-1.54441 0.29529,3.603625 0.2953,-1.37281 0.29529,3.775226 0.29529,2.059214 0.2953,0.343203 0.29529,0.514803 0.29529,-3.260422 0.2953,-0.343203 0.29529,1.201209 0.2953,-0.858006 0.29529,1.716012 0.29529,-0.171602 0.2953,0.858006 0.29529,-0.514803 0.2953,0.686404 0.29529,-3.775226 0.29529,1.887613 0.2953,-0.171601 0.29529,3.260423 0.2953,-1.887613 0.29529,-0.171601 0.29529,-1.544411 0.2953,2.402416 0.29529,-0.514803 0.29529,-0.343202 0.2953,0.686404 0.29529,-1.201208 0.2953,-1.029607 0.29529,3.088821 0.29529,-1.372809 0.2953,-0.686405 0.29529,1.029607 0.2953,0.171601 0.29529,-0.171601 0.29529,0.514804 0.2953,1.54441 0.29529,-1.887613 0.29529,1.029607 0.2953,0.686405 0.29529,0.858006 0.2953,0.514804 0.29529,-1.201209 0.29529,-1.54441 0.2953,0.858006 0.29529,-0.858006 0.2953,2.745619 0.29529,-3.088822 0.29529,1.887613 0.2953,0.171601 0.29529,1.029608 0.2953,-1.37281 0.29529,-0.514803 0.29529,-2.059215 0.2953,2.745619 0.29529,0.343203 0.29529,-1.716012 0.2953,2.574018 0.29529,0.686404 0.2953,0.343203 0.29529,1.887613 0.29529,-0.858006 0.2953,-1.201209 0.29529,2.574018 0.2953,-0.686405 0.29529,0.858006 0.29529,-0.686404 0.2953,-1.029607 0.29529,0.686404 0.29529,-0.343202 0.2953,-0.343202 h 0.29529 l 0.2953,2.230815 0.29529,-2.574018 0.29529,0.686405 0.2953,-5.491238 0.29529,-2.745619 0.2953,2.91722 0.29529,3.088822 0.29529,3.088821 0.2953,3.088821 0.29529,-2.402416 0.2953,0.514803 0.29529,1.716012 0.29529,-1.716012 0.2953,0.514804 0.29529,0.858006 0.29529,1.029607 0.2953,0.858006 0.29529,-0.686405 0.2953,-0.171601 0.29529,1.716011 0.29529,0.171602 0.2953,-0.858006 0.29529,0.171601 0.2953,-0.171601 0.29529,0.686404 0.29529,-0.343202 0.2953,0.514804 0.29529,1.887613 0.2953,-0.343203 0.29529,0.171601 0.29529,-2.230815 0.2953,0.858006 0.29529,1.029607 0.29529,-0.514803 0.2953,1.029607 0.29529,1.372809 0.2953,-1.029607 h 0.29529 l 0.29529,-0.686405 0.2953,0.858006 0.29529,-0.171601 0.2953,-2.745619 0.29529,2.745619 0.29529,-1.887613 0.2953,2.745619 0.29529,-0.514804 0.29529,1.029607 0.2953,0.171602 0.29529,-0.514804 0.2953,0.858006 0.29529,-1.544411 0.29529,1.029607 h 0.2953 l 0.29529,-0.686404 0.2953,0.171601 h 0.29529 l 0.29529,1.887613 0.2953,-0.343202 0.29529,0.343202 0.2953,-0.858006 0.29529,0.171601 0.29529,0.343203 0.2953,0.514803 0.29529,-0.858006 0.29529,-0.171601 0.2953,1.544411 0.29529,-1.201209 h 0.2953 l 0.29529,0.343203 0.29529,0.514803 0.2953,0.171601 0.29529,-0.686404 0.2953,0.514803 0.29529,1.029607 0.29529,0.343203 h 0.2953 l 0.29529,-1.029607 0.29529,-0.686405 0.2953,1.887613 0.29529,-0.514804 0.2953,-0.343202 h 0.29529 l 0.29529,0.858006 0.2953,-0.686405 0.29529,0.514804 0.2953,0.514803 0.29529,-1.201208 0.29529,0.171601 0.2953,1.029607 0.29529,-1.372809 0.2953,1.372809 0.29529,-0.343202 0.29529,-0.171601 0.2953,0.514803 0.29529,-1.029607 0.29529,0.514804 0.2953,0.343202 0.29529,-0.171601 0.2953,-0.343202 0.29529,0.514803 0.29529,0.171601 0.2953,-1.372809 0.29529,0.514803 0.2953,0.686405 0.29529,0.343202 0.29529,0.514804 0.2953,0.343202 0.29529,-1.201208 0.29529,-0.514803 0.2953,-0.171602 0.29529,0.514804 0.2953,0.171601 0.29529,0.171601 0.29529,0.858006 0.2953,-1.201208 0.29529,-0.686405 0.2953,-0.858006 0.29529,-0.514803 0.29529,0.686404 0.2953,-0.171601 0.29529,0.858006 h 0.2953 l 0.29529,1.029607 0.29529,-0.171601 0.2953,0.343202 0.29529,-0.514803 0.29529,1.887613 0.2953,-2.230815 0.29529,1.54441 0.2953,-0.514803 h 0.29529 l 0.29529,-0.858006 0.2953,1.716012 0.29529,-0.858006 0.2953,0.171601 0.29529,-0.514804 0.29529,0.514804 0.2953,-0.171601 h 0.29529 l 0.2953,-0.343203 0.29529,0.686405 0.29529,-0.343202 0.2953,0.171601 0.29529,-0.171601 0.29529,-0.343203 0.2953,0.343203 0.29529,0.343202 0.2953,-0.514804 0.29529,0.514804 0.29529,0.514804 0.2953,-0.686405 0.29529,0.343202 0.2953,-1.029607 0.29529,0.514804 0.29529,0.686404 0.2953,-0.514803 h 0.29529 l 0.29529,0.343202 0.2953,-0.514803 0.29529,0.514803 0.2953,-0.343202 h 0.29529 0.29529 l 0.2953,-0.514804 0.29529,1.201209 0.2953,-1.029608 0.29529,0.514804 h 0.29529 0.2953 0.29529 l 0.2953,0.686405 0.29529,-1.201209 0.29529,-0.171601 0.2953,0.686405 0.29529,-0.858006 0.29529,2.059214 0.2953,-1.201208 0.29529,0.343202 0.2953,-0.171601 0.29529,0.686405 0.29529,-1.029607 0.2953,0.171601 0.29529,0.171601 0.2953,-0.171601 0.29529,0.343202 0.29529,0.171602 0.2953,-0.343203 0.29529,-0.514803 h 0.29529 l 0.2953,0.514803 0.29529,-0.858006 0.2953,1.029607 0.29529,0.171602 0.29529,-0.514804 0.2953,0.171601 0.29529,0.343203 0.2953,-0.343203"
         style="fill:none;stroke:#000000;stroke-width:0.529167;stroke-linecap:square;stroke-linejoin:round"
         id="path1395" />
    </g>
  </g>
</svg>
